<?xml version="1.0" encoding="utf-8"?>
<!-- Generator: Adobe Illustrator 27.5.0, SVG Export Plug-In . SVG Version: 6.00 Build 0)  -->
<svg version="1.1" id="Capa_1" xmlns="http://www.w3.org/2000/svg" xmlns:xlink="http://www.w3.org/1999/xlink" x="0px" y="0px"
	 viewBox="0 0 1898 2372" style="enable-background:new 0 0 1898 2372;" xml:space="preserve">
<path style="fill:#191423;" d="M432.253,2179.289l-35.184-384.432h-33.171c-33.033,0-59.813,27.533-59.813,61.496v330.205
	c0,33.964,26.78,61.497,59.813,61.497h66.46c13.361,0,25.657-4.56,35.614-12.173
	C447.413,2223.645,434.442,2203.214,432.253,2179.289z"/>
<path style="fill:#191423;" d="M1431.395,2235.882c9.956,7.613,22.252,12.173,35.614,12.173h66.46
	c33.033,0,59.813-27.533,59.813-61.497v-330.205c0-33.963-26.779-61.496-59.813-61.496h-33.171l-35.183,384.432
	C1462.925,2203.214,1449.954,2223.645,1431.395,2235.882z"/>
<path style="fill:#EF921C;" d="M1258.13,123.653H639.238c-30.589,0-56.146,28.292-62.765,66.213h744.422
	C1314.275,151.945,1288.718,123.653,1258.13,123.653z"/>
<polygon style="fill:#D38113;" points="209.24,421.427 209.24,421.427 277.098,483.992 271.371,421.427 "/>
<polygon style="fill:#D38113;" points="1620.269,483.992 1688.128,421.427 1688.127,421.427 1625.995,421.427 "/>
<path style="fill:#EF921C;" d="M1160.618,2185.448c-6.283-36.213-37.174-62.607-73.271-62.607H810.02
	c-36.097,0-66.987,26.395-73.271,62.607l0,0c-0.43,2.476-0.998,4.895-1.651,7.275c21.934,25.883,56.173,42.316,94.211,42.316
	h238.749c38.039,0,72.277-16.434,94.211-42.316C1161.616,2190.343,1161.048,2187.924,1160.618,2185.448L1160.618,2185.448z"/>
<path style="fill:#F8C00E;" d="M1606.744,421.427l-21.995,240.339c-329.063-139.29-763.238,81.331-988.745,511.33
	c-208.195,396.989-168.466,838.837,76.26,1055.034c-2.871,0.47-5.799,0.751-8.787,0.751H506.339
	c-28.674,0-52.316-22.072-54.996-51.34L290.623,421.427h-19.252l5.726,62.565l119.971,1310.865l35.184,384.432
	c2.189,23.925,15.161,44.356,33.72,56.594c11.671,7.695,25.534,12.173,40.366,12.173h157.14c33.628,0,62.716-22.919,71.62-55.333
	c0.653-2.38,1.221-4.799,1.651-7.275l0,0c6.284-36.213,37.174-62.607,73.271-62.607h277.326c36.097,0,66.988,26.395,73.271,62.607h0
	c0.43,2.476,0.997,4.895,1.651,7.275c8.905,32.414,37.991,55.333,71.62,55.333h157.139c14.831,0,28.695-4.478,40.366-12.173
	c18.559-12.237,31.53-32.668,33.72-56.593l35.183-384.432l119.971-1310.865l5.726-62.565H1606.744z"/>
<path style="fill:#FFE51E;" d="M1220.368,2216.38c84.822,0.687,165.851,11.992,188.506-15.574
	c51.002-62.057,159.851-1472.435,159.851-1472.435C1394.546,2200.806,1220.368,2216.38,1220.368,2216.38z"/>
<path style="fill:#EF921C;" d="M451.343,2177.543c2.68,29.268,26.322,51.34,54.996,51.34h157.138c2.988,0,5.916-0.281,8.787-0.751
	c-244.726-216.198-284.455-658.045-76.26-1055.034c225.507-429.999,659.682-650.62,988.745-511.33l21.995-240.339h-36.654
	l-21.68,164.751h-33.372l-8.486-164.751h-339.206l-7.629,164.751h-33.373l-22.536-164.751H793.56l-22.536,164.751h-33.373
	l-7.629-164.751H390.815l-8.486,164.751h-33.372l-21.68-164.751h-36.655L451.343,2177.543z"/>
<path style="fill:#FFFFFF;" d="M643.625,1311.323c1.793,18.447,30.077,81.501,92.857,150.923
	c2.843-72.808,42.054-138.987,90.325-195.488c21.365,11.312,31.954,16.967,52.947,28.278
	c-30.179-52.799-45.877-79.199-78.49-131.997c-61.202,4.829-91.691,7.244-152.435,12.073c17.01,8.525,25.462,12.787,42.26,21.313
	C678.827,1215.584,640.612,1280.343,643.625,1311.323z"/>
<path style="fill:#FFFFFF;" d="M772.672,1377.887c-9.815,17.429-24.107,44.366-21.464,84.359
	c0.735,11.13,30.678,46.406,51.387,46.406c37.967,0,56.952,0,94.92,0c-0.904-52.304-1.356-78.457-2.259-130.765
	C846.221,1377.887,821.705,1377.887,772.672,1377.887z"/>
<path style="fill:#FFFFFF;" d="M1138.255,1516.897c16.182-9.364,62.186-60.222,99.604-149.104
	c-72.149,29.395-153.448,23.607-228.664,8.567c-0.537-23.955-0.816-35.932-1.393-59.888c-32.904,52.29-48.689,78.435-78.927,130.723
	c35.092,49.298,51.923,73.947,84.155,123.241c-0.308-18.052-0.469-27.078-0.799-45.13
	C1035.071,1527.309,1111.077,1532.623,1138.255,1516.897z"/>
<path style="fill:#FFFFFF;" d="M1139.625,1372.586c21.293,0.902,53.695,1.857,91.197-18.446
	c10.436-5.65,30.525-49.566,20.241-69.071c-18.855-35.758-28.599-53.638-48.716-89.396c-51.087,26.555-76.13,39.832-125.217,66.387
	C1103.093,1306.27,1115.591,1328.375,1139.625,1372.586z"/>
<path style="fill:#FFFFFF;" d="M1013.43,1175.517c-20.924,14.354-31.272,21.531-51.742,35.884
	c64.354-0.819,96.552-1.228,160.984-2.048c25.459-60.052,38.703-90.078,66.222-150.127c-16.874,10.817-25.247,16.226-41.865,27.043
	c-11.573-23.024-53.116-99.222-84.808-115.365c-18.869-9.611-95.862-21.507-197.382,1.942
	C938.745,1021.21,983.77,1099.123,1013.43,1175.517z"/>
<path style="fill:#FFFFFF;" d="M931.736,1059.085c-12.461-19.922-32.177-50.221-74.116-71.061
	c-11.671-5.8-62.331,4.726-72.05,26.408c-17.821,39.75-26.444,59.626-43.122,99.379c53.846,27.259,80.238,40.888,131.953,68.147
	C896.462,1132.807,907.929,1108.233,931.736,1059.085z"/>
<path style="fill:#F8C00E;" d="M1558.666,189.866h-237.771H576.473H338.702c-38.528,0-69.761,32.631-69.761,72.885h1359.486
	C1628.426,222.497,1597.193,189.866,1558.666,189.866z"/>
<polygon style="fill:#D38113;" points="361.857,421.427 382.33,586.179 390.815,421.427 "/>
<polygon style="fill:#D38113;" points="764.601,421.427 771.023,586.179 793.56,421.427 "/>
<polygon style="fill:#D38113;" points="1535.511,421.427 1506.551,421.427 1515.037,586.179 "/>
<polygon style="fill:#D38113;" points="1132.766,421.427 1103.807,421.427 1126.344,586.179 "/>
<path style="fill:#FFE51E;" d="M1649.674,262.751h-21.247H268.94h-21.248c-21.543,0-39.008,17.465-39.008,39.009v119.668h0.555
	h62.132h19.252h36.655l21.68,164.751h33.372l-20.473-164.751h28.959h339.207l7.629,164.751h33.373l-6.422-164.751h28.959h310.247
	h28.959l-6.422,164.751h33.373l7.629-164.751h339.206h28.96l-20.474,164.751h33.372l21.68-164.751h36.654h19.252h62.132h0.556
	V301.76C1688.683,280.216,1671.218,262.751,1649.674,262.751z"/>
<path style="fill:#D38113;" d="M1141.194,1944.304l-7.482-32.027c-13.171-61.574-62.968-90.147-119.107-84.927
	c-19.446,0.135-112.396,0.135-131.843,0c-56.139-5.219-105.936,23.354-119.106,84.927l-7.483,32.027
	c-15.199,63.845-44.526,192.372-58.812,256.502c39.267-91.399,69.206-185.264,97.824-279.889
	c9.122-35.365,41.334-52.423,72.188-52.423c22.01,0.551,140.611,0.551,162.62,0c34.898,0,63.066,17.058,72.188,52.423
	c28.618,94.625,58.556,188.49,97.824,279.889C1185.721,2136.676,1156.393,2008.149,1141.194,1944.304z"/>
</svg>
